<svg id="visual" viewBox="0 0 960 540" width="960" height="540" xmlns="http://www.w3.org/2000/svg" xmlns:xlink="http://www.w3.org/1999/xlink" version="1.1"><path d="M0 71L96 82L192 44L288 71L384 50L480 50L576 87L672 23L768 60L864 71L960 23L960 0L864 0L768 0L672 0L576 0L480 0L384 0L288 0L192 0L96 0L0 0Z" fill="#00cc8e"></path><path d="M0 98L96 98L192 77L288 136L384 104L480 109L576 114L672 71L768 125L864 114L960 66L960 21L864 69L768 58L672 21L576 85L480 48L384 48L288 69L192 42L96 80L0 69Z" fill="#00c08c"></path><path d="M0 136L96 190L192 98L288 222L384 195L480 136L576 212L672 109L768 179L864 147L960 158L960 64L864 112L768 123L672 69L576 112L480 107L384 102L288 134L192 75L96 96L0 96Z" fill="#00b388"></path><path d="M0 260L96 363L192 201L288 298L384 336L480 195L576 374L672 233L768 244L864 309L960 330L960 156L864 145L768 177L672 107L576 210L480 134L384 193L288 220L192 96L96 188L0 134Z" fill="#00a784"></path><path d="M0 309L96 422L192 276L288 336L384 374L480 239L576 401L672 287L768 309L864 330L960 368L960 328L864 307L768 242L672 231L576 372L480 193L384 334L288 296L192 199L96 361L0 258Z" fill="#009b7f"></path><path d="M0 390L96 503L192 314L288 417L384 411L480 341L576 482L672 411L768 384L864 455L960 449L960 366L864 328L768 307L672 285L576 399L480 237L384 372L288 334L192 274L96 420L0 307Z" fill="#008f79"></path><path d="M0 541L96 541L192 541L288 541L384 541L480 541L576 541L672 541L768 541L864 541L960 541L960 447L864 453L768 382L672 409L576 480L480 339L384 409L288 415L192 312L96 501L0 388Z" fill="#038373"></path></svg>