<svg id="visual" viewBox="0 0 675 900" width="675" height="900" xmlns="http://www.w3.org/2000/svg" xmlns:xlink="http://www.w3.org/1999/xlink" version="1.1"><rect x="0" y="0" width="675" height="900" fill="#11100e"></rect><defs><linearGradient id="grad1_0" x1="0%" y1="0%" x2="100%" y2="100%"><stop offset="30%" stop-color="#11100e" stop-opacity="1"></stop><stop offset="70%" stop-color="#11100e" stop-opacity="1"></stop></linearGradient></defs><defs><linearGradient id="grad2_0" x1="0%" y1="0%" x2="100%" y2="100%"><stop offset="30%" stop-color="#11100e" stop-opacity="1"></stop><stop offset="70%" stop-color="#11100e" stop-opacity="1"></stop></linearGradient></defs><g transform="translate(675, 0)"><path d="M0 365.6C-58.9 371.2 -117.9 376.7 -139.9 337.8C-162 298.9 -147.2 215.4 -181 181C-214.9 146.6 -297.4 161.3 -336.3 139.3C-375.2 117.3 -370.4 58.7 -365.6 0L0 0Z" fill="#000bff"></path></g><g transform="translate(0, 900)"><path d="M0 -365.6C38.7 -339.7 77.4 -313.7 124.4 -300.3C171.3 -286.8 226.6 -285.9 258.5 -258.5C290.5 -231.1 299.2 -177.2 313.2 -129.7C327.2 -82.2 346.4 -41.1 365.6 0L0 0Z" fill="#000bff"></path></g></svg>