<svg id="visual" viewBox="0 0 675 900" width="675" height="900" xmlns="http://www.w3.org/2000/svg" xmlns:xlink="http://www.w3.org/1999/xlink" version="1.1"><rect x="0" y="0" width="675" height="900" fill="#001220"></rect><defs><linearGradient id="grad1_0" x1="0%" y1="100%" x2="100%" y2="0%"><stop offset="30%" stop-color="#715df2" stop-opacity="1"></stop><stop offset="70%" stop-color="#715df2" stop-opacity="1"></stop></linearGradient></defs><defs><linearGradient id="grad1_1" x1="0%" y1="100%" x2="100%" y2="0%"><stop offset="30%" stop-color="#715df2" stop-opacity="1"></stop><stop offset="70%" stop-color="#003f8a" stop-opacity="1"></stop></linearGradient></defs><defs><linearGradient id="grad1_2" x1="0%" y1="100%" x2="100%" y2="0%"><stop offset="30%" stop-color="#001220" stop-opacity="1"></stop><stop offset="70%" stop-color="#003f8a" stop-opacity="1"></stop></linearGradient></defs><defs><linearGradient id="grad2_0" x1="0%" y1="100%" x2="100%" y2="0%"><stop offset="30%" stop-color="#715df2" stop-opacity="1"></stop><stop offset="70%" stop-color="#715df2" stop-opacity="1"></stop></linearGradient></defs><defs><linearGradient id="grad2_1" x1="0%" y1="100%" x2="100%" y2="0%"><stop offset="30%" stop-color="#003f8a" stop-opacity="1"></stop><stop offset="70%" stop-color="#715df2" stop-opacity="1"></stop></linearGradient></defs><defs><linearGradient id="grad2_2" x1="0%" y1="100%" x2="100%" y2="0%"><stop offset="30%" stop-color="#003f8a" stop-opacity="1"></stop><stop offset="70%" stop-color="#001220" stop-opacity="1"></stop></linearGradient></defs><g transform="translate(675, 900)"><path d="M-450 0C-453.8 -53.6 -457.6 -107.1 -426.1 -138.4C-394.6 -169.8 -327.7 -178.8 -301 -218.7C-274.2 -258.5 -287.5 -329 -264.5 -364.1C-241.6 -399.1 -182.4 -398.6 -132.3 -407.1C-82.1 -415.5 -41.1 -432.7 0 -450L0 0Z" fill="#002a53"></path><path d="M-300 0C-302.5 -35.7 -305.1 -71.4 -284 -92.3C-263 -113.2 -218.5 -119.2 -200.6 -145.8C-182.8 -172.3 -191.6 -219.3 -176.3 -242.7C-161 -266.1 -121.6 -265.8 -88.2 -271.4C-54.8 -277 -27.4 -288.5 0 -300L0 0Z" fill="#2651c0"></path><path d="M-150 0C-151.3 -17.9 -152.5 -35.7 -142 -46.1C-131.5 -56.6 -109.2 -59.6 -100.3 -72.9C-91.4 -86.2 -95.8 -109.7 -88.2 -121.4C-80.5 -133 -60.8 -132.9 -44.1 -135.7C-27.4 -138.5 -13.7 -144.2 0 -150L0 0Z" fill="#715df2"></path></g><g transform="translate(0, 0)"><path d="M450 0C397.5 34.8 345 69.5 322.4 104.8C299.8 140 307.1 175.7 305 221.6C302.9 267.5 291.4 323.6 262.2 360.8C232.9 398 185.7 416.3 139.1 428C92.4 439.7 46.2 444.8 0 450L0 0Z" fill="#002a53"></path><path d="M300 0C265 23.2 230 46.4 214.9 69.8C199.9 93.3 204.7 117.1 203.3 147.7C201.9 178.3 194.3 215.8 174.8 240.5C155.2 265.3 123.8 277.5 92.7 285.3C61.6 293.1 30.8 296.6 0 300L0 0Z" fill="#2651c0"></path><path d="M150 0C132.5 11.6 115 23.2 107.5 34.9C99.9 46.7 102.4 58.6 101.7 73.9C101 89.2 97.1 107.9 87.4 120.3C77.6 132.7 61.9 138.8 46.4 142.7C30.8 146.6 15.4 148.3 0 150L0 0Z" fill="#715df2"></path></g></svg>